PathFileType	4	(X/Y/Z)	./resultDataOpenSim/trcMotMarkerGrf/sub10/qtm-01-06.trc
DataRate	CameraRate	NumFrames	NumMarkers	Units	OrigDataRate	OrigDataStartFrame	OrigNumFrames
250.000000	250.000000	11	24	m	250.000000	175	464
Frame#	Time	L.Toe.Tip			R.Toe.Tip			L.Ankle.Lat			R.Ankle.Lat			L.Ankle.Med			R.Ankle.Med			L.Heel			R.Heel			L.Knee.Lat			R.Knee.Lat			L.Knee.Med			R.Knee.Med			L.Thigh.Upper			R.Thigh.Upper			L.ASIS			R.ASIS			V.Sacral			L.Acromium			R.Acromium			C7			L.Elbow			R.Elbow			L.Wrist.Lat			R.Wrist.Lat
		X1	Y1	Z1	X2	Y2	Z2	X3	Y3	Z3	X4	Y4	Z4	X5	Y5	Z5	X6	Y6	Z6	X7	Y7	Z7	X8	Y8	Z8	X9	Y9	Z9	X10	Y10	Z10	X11	Y11	Z11	X12	Y12	Z12	X13	Y13	Z13	X14	Y14	Z14	X15	Y15	Z15	X16	Y16	Z16	X17	Y17	Z17	X18	Y18	Z18	X19	Y19	Z19	X20	Y20	Z20	X21	Y21	Z21	X22	Y22	Z22	X23	Y23	Z23	X24	Y24	Z24

175	0.696	0.04554569	0.044022797	-0.076873129	-0.71125122	0.039988036	0.036894936	-0.086624829	0.066471381	-0.1229379	-0.75633852	0.17307251	0.066918709	-0.090014375	0.089269191	-0.039519928	-0.71269988	0.15838572	-0.0081870296	-0.15422888	0.03564799	-0.088071216	-0.79539707	0.19576944	0.010725726	-0.095519172	0.46058095	-0.14884923	-0.44064951	0.40625492	0.095938831	-0.095506633	0.44013066	-0.028017673	-0.39868935	0.38742978	-0.024848548	-0.23202824	0.82343828	-0.2200613	-0.35993058	0.78901361	0.14853502	-0.21484761	0.92717086	-0.13242781	-0.26365417	0.88361885	0.10327823	-0.43460415	0.90703413	-0.066092005	-0.30826726	1.3615778	-0.18554703	-0.32926197	1.3658165	0.13817466	-0.40571641	1.3932228	-0.03364889	-0.45920958	1.0612803	-0.22687698	-0.31370614	1.0147151	0.20665489	-0.42796841	0.82894899	-0.29454439	-0.084248761	0.91062381	0.19910984
176	0.7	0.045754508	0.043771844	-0.076420359	-0.70783797	0.041513657	0.036694015	-0.086273916	0.066386234	-0.12261142	-0.74694089	0.17687244	0.066863168	-0.089894971	0.088827314	-0.039058543	-0.70271826	0.16041501	-0.0076933722	-0.15411572	0.035645294	-0.088008738	-0.78437273	0.20150089	0.010283303	-0.091726139	0.46010318	-0.1483626	-0.42905337	0.40557886	0.096663565	-0.092189156	0.43947448	-0.027513277	-0.38544727	0.38511749	-0.023643003	-0.22583005	0.82413303	-0.22073116	-0.35259311	0.7887221	0.14817165	-0.2085153	0.92842228	-0.13290895	-0.25668482	0.88423476	0.10236426	-0.42884046	0.90812439	-0.064802929	-0.30166449	1.3627174	-0.1857604	-0.32319325	1.3667587	0.13778109	-0.39941317	1.3938584	-0.033971258	-0.45189237	1.0619941	-0.22734027	-0.3087997	1.015508	0.20530409	-0.41956128	0.82960337	-0.29457216	-0.080026632	0.91058281	0.19839797
177	0.704	0.045942765	0.043559145	-0.076066676	-0.70412805	0.043315165	0.03642183	-0.085951151	0.066302348	-0.1223673	-0.73718503	0.1806588	0.066843426	-0.089761553	0.088462177	-0.038687413	-0.69278555	0.16286063	-0.0075474917	-0.15407497	0.035681526	-0.087948816	-0.77310325	0.20737666	0.010324532	-0.08791416	0.45961642	-0.14785024	-0.41748535	0.40492932	0.09744567	-0.089077214	0.4387083	-0.026977548	-0.37210499	0.38280198	-0.022420084	-0.21962746	0.82473082	-0.22143277	-0.34528881	0.78843995	0.14775935	-0.20222981	0.92955254	-0.13345372	-0.24974135	0.88487161	0.10146275	-0.42325471	0.90922246	-0.06371322	-0.29509263	1.3639137	-0.18599525	-0.31717434	1.3676689	0.13742794	-0.39315163	1.3945065	-0.034286044	-0.44461518	1.0627177	-0.22779534	-0.30376059	1.0162945	0.20366858	-0.41102526	0.83029025	-0.29459786	-0.075848131	0.91051438	0.19775373
178	0.708	0.046090067	0.043382679	-0.075773398	-0.70011628	0.045291544	0.036081538	-0.085665342	0.066225287	-0.12218885	-0.72697341	0.18450687	0.066849293	-0.089603852	0.088168119	-0.038401059	-0.68282024	0.16566334	-0.0076895776	-0.15407811	0.035735022	-0.087897304	-0.76160386	0.21335005	0.010923227	-0.084093433	0.45911997	-0.14735632	-0.40596602	0.40434587	0.098262385	-0.086194245	0.43787741	-0.026475347	-0.35876535	0.38056967	-0.021211878	-0.2134213	0.82526991	-0.22214253	-0.33786748	0.7881965	0.14710473	-0.19597747	0.9305641	-0.13406276	-0.24280933	0.8855495	0.10057341	-0.41769918	0.91029667	-0.062889048	-0.28858737	1.3651571	-0.18623796	-0.31120616	1.368555	0.13711546	-0.3869358	1.3951767	-0.034597386	-0.43735273	1.0634452	-0.22825532	-0.29883327	1.0170086	0.20210993	-0.40237659	0.83102381	-0.29461295	-0.071728332	0.9104202	0.19717239
179	0.712	0.04619055	0.043241645	-0.075516187	-0.69573906	0.047440615	0.035697394	-0.085432665	0.066145182	-0.12206034	-0.71622799	0.18844013	0.066882848	-0.08944719	0.087936748	-0.038181349	-0.67265853	0.1685713	-0.0079064456	-0.15408498	0.03577187	-0.08786975	-0.7496906	0.21926769	0.01177918	-0.08028727	0.458609	-0.14691493	-0.39452041	0.40385641	0.099088486	-0.083590355	0.43700747	-0.026074393	-0.34549942	0.37852472	-0.020016302	-0.20721759	0.82578467	-0.22284104	-0.33021575	0.78805006	0.14604029	-0.18974741	0.93146608	-0.13472926	-0.23591534	0.88628143	0.099709594	-0.41214377	0.91134976	-0.062193283	-0.28212419	1.3664236	-0.18646389	-0.30526933	1.3694304	0.13684293	-0.38076287	1.395882	-0.034910295	-0.43007954	1.0641699	-0.22873368	-0.29418507	1.0176126	0.2008943	-0.39362594	0.83179828	-0.29461655	-0.067668667	0.91030018	0.19665341
180	0.716	0.046250636	0.04313221	-0.075289182	-0.69088117	0.049839439	0.035308988	-0.085257212	0.066059458	-0.12197004	-0.70501662	0.1923797	0.0669212	-0.089317708	0.08776891	-0.038014062	-0.66221163	0.17139571	-0.008074687	-0.15408562	0.035784059	-0.087859644	-0.73710861	0.22491184	0.012390832	-0.076517484	0.45808611	-0.14654496	-0.38316916	0.40347278	0.099899451	-0.081256436	0.43612288	-0.025793686	-0.3322932	0.37680335	-0.018799819	-0.20102806	0.82630341	-0.22351065	-0.322453	0.78806141	0.14469273	-0.18352919	0.93226638	-0.13543865	-0.22911733	0.8870637	0.098900345	-0.40662348	0.91238975	-0.061515813	-0.27566042	1.3677001	-0.18665617	-0.29934683	1.3703089	0.13661611	-0.37462416	1.3966408	-0.035224596	-0.42279207	1.0648957	-0.22921947	-0.2897644	1.0181467	0.19995841	-0.38478429	0.83260444	-0.29460472	-0.06366727	0.91015033	0.19619955
181	0.72	0.046281277	0.043046617	-0.075094805	-0.68537884	0.052571666	0.034958804	-0.085126237	0.065984977	-0.12191348	-0.69351863	0.19620306	0.066918357	-0.089223042	0.08765844	-0.037890131	-0.65149906	0.17412324	-0.0082199916	-0.15408767	0.035780062	-0.087851177	-0.7238817	0.23010897	0.0125142	-0.072820112	0.45756066	-0.14625721	-0.37191631	0.40319908	0.10067197	-0.07910301	0.43526251	-0.025608268	-0.31908882	0.37556054	-0.017548748	-0.19487424	0.82684936	-0.22413254	-0.31485204	0.78824344	0.14344416	-0.17731583	0.9329702	-0.13616109	-0.22244248	0.88788749	0.098168519	-0.40114204	0.91342547	-0.060813798	-0.26917482	1.3689902	-0.18681353	-0.29344046	1.3712031	0.1364431	-0.3685075	1.3974757	-0.035532552	-0.4155037	1.0656348	-0.2296825	-0.28543858	1.0186833	0.1991179	-0.37586401	0.83343762	-0.29457048	-0.059726435	0.90996516	0.19581064
182	0.724	0.046290941	0.042976959	-0.074935616	-0.67904142	0.055652942	0.034672906	-0.085025463	0.065941379	-0.1218917	-0.68191433	0.19982598	0.066828364	-0.089156058	0.087591895	-0.037802784	-0.64059012	0.17680377	-0.0084009141	-0.15409866	0.035768843	-0.087836631	-0.71037869	0.2347918	0.012226303	-0.069239086	0.45704997	-0.14605217	-0.36075081	0.4030506	0.10138657	-0.077030106	0.43447366	-0.025500101	-0.30591996	0.37489883	-0.016345575	-0.18878635	0.82743789	-0.22468937	-0.30754679	0.78856534	0.14254678	-0.1711055	0.93358813	-0.13685693	-0.21586667	0.88875579	0.097514916	-0.39554954	0.91447918	-0.060082392	-0.26266237	1.3703016	-0.18694979	-0.28755888	1.3721225	0.1363258	-0.3623982	1.3984059	-0.035822388	-0.40822088	1.0663968	-0.23010465	-0.28112972	1.0192658	0.19826753	-0.36686748	0.8342963	-0.29451619	-0.055849551	0.90974182	0.19547951
183	0.728	0.046284442	0.042919085	-0.074812426	-0.67169265	0.058987728	0.034434741	-0.084946179	0.065924523	-0.12189979	-0.67033434	0.20323168	0.06661258	-0.089105445	0.087559671	-0.037749004	-0.6295579	0.17945883	-0.0086419475	-0.15412194	0.035757281	-0.087818424	-0.69707506	0.23895592	0.01165307	-0.065806663	0.45657532	-0.14592195	-0.34965497	0.40306236	0.10203297	-0.075005842	0.43379263	-0.025483125	-0.29294288	0.37480561	-0.015331567	-0.18279121	0.82807294	-0.22516872	-0.30047413	0.78899862	0.14196261	-0.16490173	0.93413704	-0.13749855	-0.20937083	0.889679	0.096934851	-0.38947086	0.91559588	-0.059332884	-0.25613641	1.3716408	-0.18708375	-0.28170095	1.3730695	0.13625868	-0.35628071	1.399443	-0.036082166	-0.40093259	1.0671833	-0.2304945	-0.27684064	1.0198937	0.19740026	-0.35778856	0.83518304	-0.29445288	-0.052039275	0.90948178	0.19519842
184	0.732	0.046266134	0.042872117	-0.074724465	-0.66319843	0.062387297	0.034198366	-0.084881192	0.065903233	-0.12192196	-0.65884964	0.20645424	0.06624393	-0.089061552	0.087557982	-0.037728644	-0.61845315	0.18208647	-0.0089392267	-0.15415635	0.035750409	-0.087803856	-0.68430598	0.24262141	0.010862742	-0.062539194	0.45614599	-0.14585997	-0.33860371	0.40327565	0.10261013	-0.073062472	0.43323281	-0.025583008	-0.28028325	0.37518099	-0.014576084	-0.17690519	0.82874918	-0.22556176	-0.29354104	0.78953866	0.14154279	-0.1587266	0.93462865	-0.13808802	-0.20297899	0.89066425	0.096437383	-0.38253365	0.91681329	-0.058599405	-0.24963685	1.3730124	-0.18721606	-0.2758566	1.3740395	0.13622918	-0.35014296	1.4005896	-0.036301216	-0.39362394	1.0679907	-0.23086745	-0.27261683	1.020549	0.19653507	-0.34862638	0.83610438	-0.29438881	-0.048300518	0.9091889	0.1949661
185	0.736	0.046240989	0.042835424	-0.07467016	-0.65345744	0.065653097	0.033956946	-0.084824176	0.065848305	-0.12194483	-0.64746984	0.20953291	0.065720119	-0.089017416	0.087583265	-0.037742079	-0.60728475	0.18468541	-0.0092817115	-0.15419825	0.03575002	-0.087799689	-0.67215371	0.24583511	0.0099240784	-0.059437532	0.45575437	-0.14586545	-0.32755158	0.40371769	0.10311648	-0.071233869	0.43278815	-0.025810131	-0.26793261	0.37590868	-0.014038071	-0.17113856	0.82945519	-0.22585834	-0.28671252	0.79019297	0.1411881	-0.15262129	0.9350647	-0.13865418	-0.19672317	0.89171751	0.09603777	-0.37493245	0.91811116	-0.057914355	-0.24319819	1.3744157	-0.18732299	-0.27001738	1.3750261	0.13622192	-0.3439807	1.401837	-0.03647453	-0.38629025	1.068815	-0.23122271	-0.2685007	1.0212218	0.1956807	-0.33938228	0.83706555	-0.2943253	-0.04463904	0.90886751	0.19478697
